<svg xmlns="http://www.w3.org/2000/svg" viewBox="0 0 200 200" width="200" height="200">
  <!-- Fondo del logo -->
  <rect x="10" y="40" width="180" height="120" rx="10" ry="10" fill="#1a365d" />
  
  <!-- Letra H estilizada -->
  <path d="M50 60 L50 140 L70 140 L70 105 L130 105 L130 140 L150 140 L150 60 L130 60 L130 85 L70 85 L70 60 Z" fill="#f0e6d2" />
  
  <!-- Estrellas para indicar categoría de hotel -->
  <polygon points="60,155 63,162 70,163 65,168 66,175 60,172 54,175 55,168 50,163 57,162" fill="#f0e6d2" />
  <polygon points="80,155 83,162 90,163 85,168 86,175 80,172 74,175 75,168 70,163 77,162" fill="#f0e6d2" />
  <polygon points="100,155 103,162 110,163 105,168 106,175 100,172 94,175 95,168 90,163 97,162" fill="#f0e6d2" />
  <polygon points="120,155 123,162 130,163 125,168 126,175 120,172 114,175 115,168 110,163 117,162" fill="#f0e6d2" />
  <polygon points="140,155 143,162 150,163 145,168 146,175 140,172 134,175 135,168 130,163 137,162" fill="#f0e6d2" />
  
  <!-- Texto "HOTEL" en la parte superior -->
  <text x="100" y="35" font-family="'Playfair Display', serif" font-size="18" font-weight="bold" text-anchor="middle" fill="#1a365d">HOTEL CAUSAS</text>
</svg>